<svg xmlns="http://www.w3.org/2000/svg" viewBox="0 0 486.17341 420.76004"><defs><style>.cls-1{fill:#a32b2b;}.cls-2{fill:#343434;}</style></defs><title>Asset 4</title><g id="Layer_2" data-name="Layer 2"><g id="Layer_3" data-name="Layer 3"><path class="cls-1" d="M200.70451,224.37722c1.675,1.86976,3.39542,3.70057,5.16778,5.47293q3.47658,3.47658,7.19987,6.69347a135.86245,135.86245,0,0,0,13.55574,10.29663c.86347.57132,1.74641,1.12318,2.62284,1.6815a132.909,132.909,0,0,0,41.57613,17.32771c.96733.22721,1.92817.448,2.8955.64922a134.91849,134.91849,0,0,0,27.33222,2.78514H351.551a16.83107,16.83107,0,0,1,0,33.66213H257.32954a16.75754,16.75754,0,0,1-6.92068-1.49324L238.12562,313.736a33.48232,33.48232,0,0,0,19.21692,6.03124H351.538a33.65561,33.65561,0,0,0,0-67.31121H326.30276v-.0065H301.05459a119.2108,119.2108,0,0,1-15.7696-1.05174,117.00761,117.00761,0,0,1-34.40871-10.14732c-3.21361-1.5127-6.3364-3.18766-9.38121-4.973-1.88275-1.11018-3.73951-2.24632-5.55737-3.45386a118.56251,118.56251,0,0,1-35.23319-36.45377A117.82048,117.82048,0,0,1,301.05459,16.83429H395.289a117.35567,117.35567,0,0,1,78.97774,30.403l11.90669-11.90669A134.152,134.152,0,0,0,395.263,0H301.08055a134.58382,134.58382,0,0,0-100.376,224.37722Z"/><path class="cls-1" d="M326.30276,50.49638v-.0065H301.06755A84.17951,84.17951,0,0,0,264.34762,210.38c.68817.33111,1.37634.65572,2.071.96733a83.78143,83.78143,0,0,0,34.64892,7.44655h16.82133l-.00649.0065H351.551a67.31124,67.31124,0,0,1,0,134.62247H326.30276v.00646h-43.725v-.00646H257.32954a67.04574,67.04574,0,0,1-43.19914-15.6917L226.102,325.75954a50.24927,50.24927,0,0,0,31.247,10.8485h94.18248a50.49007,50.49007,0,0,0,.1688-100.97981c-.05845,0-.11689-.0065-.1688-.0065H301.06109c-.05195,0-.1039.0065-.15585.0065a100.36424,100.36424,0,0,1-47.049-11.712q-2.902-1.53861-5.68719-3.2461a101.4181,101.4181,0,0,1-13.88684-10.29664c-1.5841-1.39584-3.12925-2.83059-4.61595-4.32379a100.98591,100.98591,0,0,1,71.4143-172.39414h25.22221v.0065h43.73805v-.0065H395.263A100.60354,100.60354,0,0,1,462.347,59.1635L450.42085,71.08319A83.8093,83.8093,0,0,0,395.276,50.48988H370.04081v.0065Z"/><path class="cls-1" d="M451.89455,196.36982q-2.50275-2.80464-5.15481-5.46642-3.48628-3.4766-7.20634-6.7a135.79906,135.79906,0,0,0-13.55574-10.29013c-.86347-.57782-1.7464-1.12968-2.62283-1.6815a133.24844,133.24844,0,0,0-41.57613-17.33421c-.96084-.22071-1.92167-.448-2.8955-.64272a134.98219,134.98219,0,0,0-27.33873-2.78515H301.06109a16.82781,16.82781,0,1,1,0-33.65562h25.24167v.013h43.73805v-.013h25.24167a16.65554,16.65554,0,0,1,6.92072,1.4932L414.493,107.01755A33.513,33.513,0,0,0,395.276,100.9863H370.04081v.0065H326.30276v-.0065H301.06755a33.65561,33.65561,0,1,0,0,67.31122h25.23521v.013H351.551a119.11345,119.11345,0,0,1,15.7631,1.05173,117.24935,117.24935,0,0,1,34.40871,10.14083c3.21365,1.51915,6.3364,3.18766,9.38125,4.97951,1.88272,1.10368,3.746,2.24632,5.55733,3.44736a118.47334,118.47334,0,0,1,35.23319,36.44727A117.814,117.814,0,0,1,351.551,403.91925H326.30276v.013h-43.725v-.013H257.32954a117.37194,117.37194,0,0,1-78.9842-30.403L166.43212,385.423A134.15544,134.15544,0,0,0,257.349,420.76h25.22871v-.00649h43.725V420.76h25.22876a134.59184,134.59184,0,0,0,100.363-224.39022Z"/><path class="cls-1" d="M452.51782,286.11162a100.99009,100.99009,0,0,1-100.9863,100.9928H326.30276v-.013h-43.725v.013H257.349a100.62323,100.62323,0,0,1-67.084-25.50788l11.91969-11.92618a83.84341,83.84341,0,0,0,55.15782,20.5933h25.23521v.00646h43.725v-.00646H351.538A84.175,84.175,0,0,0,388.25145,210.38c-.68817-.33761-1.37635-.65572-2.071-.97383A83.87245,83.87245,0,0,0,351.538,201.9661H334.71668l.013-.013H301.05459a67.20395,67.20395,0,0,1-47.59438-19.71688c-.88943-.88293-1.74641-1.79831-2.57743-2.73319A67.30264,67.30264,0,0,1,301.05459,67.33067H395.289a67.04141,67.04141,0,0,1,43.19269,15.6917L426.51653,94.994a50.2815,50.2815,0,0,0-31.2535-10.8485H370.04081V84.165H326.30276v-.01946H301.08055a50.51293,50.51293,0,0,0-44.28337,74.78376A50.95423,50.95423,0,0,0,268.204,172.95892a50.64042,50.64042,0,0,0,32.53249,12.17289c.11036,0,.22721.0065.34407.0065h50.46392c.1104,0,.21426-.0065.32461-.0065a100.71809,100.71809,0,0,1,35.46045,6.53116,99.40261,99.40261,0,0,1,11.41981,5.17431q2.902,1.52887,5.68718,3.24611a100.84372,100.84372,0,0,1,13.88684,10.29013,101.36815,101.36815,0,0,1,21.20354,26.1701A100.54319,100.54319,0,0,1,452.51782,286.11162Z"/><path class="cls-2" d="M79.54246,213.04117V178.52579a2.29644,2.29644,0,0,0-2.29644-2.29644H2.29644A2.29644,2.29644,0,0,1,0,173.93291V144.32635A2.29645,2.29645,0,0,1,.40022,143.031L83.63107,21.19471a2.29645,2.29645,0,0,1,1.89622-1.00107h27.778a2.29644,2.29644,0,0,1,2.29644,2.29644V141.18789a2.29644,2.29644,0,0,0,2.29644,2.29644H137.433a2.29644,2.29644,0,0,1,2.29644,2.29644v28.15214a2.29644,2.29644,0,0,1-2.29644,2.29644H117.89813a2.29644,2.29644,0,0,0-2.29644,2.29644v34.51538a2.29644,2.29644,0,0,1-2.29644,2.29644H81.8389A2.29644,2.29644,0,0,1,79.54246,213.04117Zm0-71.85328v-56.593a2.29644,2.29644,0,0,0-4.20191-1.28173L37.273,139.90617a2.29644,2.29644,0,0,0,1.90547,3.57816H77.246A2.29644,2.29644,0,0,0,79.54246,141.18789Z"/></g></g></svg>